<?xml version="1.0" ?><!DOCTYPE svg  PUBLIC '-//W3C//DTD SVG 1.1//EN'  'http://www.w3.org/Graphics/SVG/1.1/DTD/svg11.dtd'><svg id="Layer_1" style="enable-background:new 0 0 512 512;" version="1.1" viewBox="0 0 512 512" xml:space="preserve" xmlns="http://www.w3.org/2000/svg" xmlns:xlink="http://www.w3.org/1999/xlink"><style type="text/css">
	.st0{fill:#ffffff;}
</style><g><g><path class="st0" d="M228.2,307.2c-4.3,4.4-4.3,11.4,0,15.8c0.4,0.4,38.6,39.1,33.9,91.7c-0.5,6.1,4,11.5,10.1,12.1     c0.3,0,0.7,0,1,0c5.7,0,10.6-4.4,11.1-10.2c5.6-63-38.5-107.6-40.4-109.5C239.6,302.8,232.6,302.8,228.2,307.2z"/><path class="st0" d="M390.5,176c0-18.8-15.3-34.2-34.2-34.2c-4.2,0-8.2,0.8-11.9,2.2V136c0-18.8-15.3-34.2-34.2-34.2     c-5.6,0-10.9,1.4-15.6,3.8c-5.6-11.1-17.2-18.8-30.5-18.8s-24.8,7.7-30.5,18.8c-4.7-2.4-10-3.8-15.6-3.8     c-18.8,0-34.2,15.3-34.2,34.2v142.6l-12.4-21.5c-4.6-8.3-11.9-14-20.7-16.2c-8.5-2.1-17.6-0.6-25.1,4.1     c-12.6,8-16.6,25.9-10.3,45.4c0,0.1,0.1,0.2,0.1,0.3c1.3,3.9,33.4,94.8,71.6,132.9c2.2,2.2,5,3.3,7.9,3.3c2.9,0,5.7-1.1,7.9-3.3     c4.4-4.4,4.3-11.4,0-15.8c-34-33.9-64.9-120.6-66.3-124.4c-2.8-8.8-2.3-17.4,1.1-19.6c2.3-1.5,5-1.9,7.6-1.3     c2.8,0.7,5,2.6,6.7,5.6l33.3,57.7c2.5,4.4,7.6,6.5,12.5,5.2c4.9-1.3,8.3-5.7,8.3-10.8V136c0-6.5,5.3-11.9,11.9-11.9     c6.5,0,11.9,5.3,11.9,11.9V175v88.6c0,6.2,5,11.2,11.1,11.2s11.1-5,11.1-11.2V175V136v-15c0-6.5,5.3-11.9,11.9-11.9     c6.5,0,11.9,5.3,11.9,11.9v15v31.7v77.6c0,6.2,5,11.2,11.2,11.2c6.2,0,11.1-5,11.1-11.2v-77.6V136c0-6.5,5.3-11.9,11.9-11.9     s11.9,5.3,11.9,11.9V176v1.8v77.7c0,6.2,5,11.1,11.1,11.1c6.2,0,11.1-5,11.1-11.1v-77.7V176c0-6.5,5.3-11.9,11.9-11.9     s11.9,5.3,11.9,11.9v14.9c0,0.1,0,0.1,0,0.2c0,0.1,0,0.1,0,0.2c1.7,49.5-0.6,186.2-30.8,223.8c-3.9,4.8-3.1,11.8,1.7,15.7     c2.1,1.7,4.5,2.5,7,2.5c3.3,0,6.5-1.4,8.7-4.2c41.2-51.4,36-228.5,35.7-238.3V176z"/><path class="st0" d="M100.5,219.6c-4.9-3.7-11.9-2.7-15.6,2.2c-21.7,28.8-19.9,55.6-19.8,56.7c0.5,5.8,5.3,10.3,11.1,10.3     c0.3,0,0.6,0,0.9,0c6.1-0.5,10.7-5.9,10.2-12c0-0.2-1-19.8,15.4-41.5C106.4,230.3,105.5,223.3,100.5,219.6z"/><path class="st0" d="M419.2,122.2c-4.7-4-11.6-3.4-15.6,1.2c-4,4.6-3.5,11.6,1.1,15.7c0.6,0.5,14.8,13.4,18.6,40.3     c0.8,5.6,5.6,9.6,11,9.6c0.5,0,1,0,1.6-0.1c6.1-0.9,10.4-6.5,9.5-12.6C440.3,140.6,420,122.9,419.2,122.2z"/><path class="st0" d="M490.2,187.4c-9.8-70.4-48.9-104.5-50.6-105.9c-4.7-4-11.7-3.4-15.7,1.2c-4,4.7-3.5,11.7,1.2,15.7     c0.3,0.3,34.4,30.5,43,92.1c0.8,5.6,5.6,9.6,11,9.6c0.5,0,1,0,1.6-0.1C486.8,199.1,491.1,193.5,490.2,187.4z"/><path class="st0" d="M78.7,195.6c3.7-4.9,2.7-11.9-2.2-15.6c-4.9-3.7-11.9-2.7-15.6,2.2c-42.8,56.7-39.3,108.5-39.1,110.6     c0.5,5.8,5.3,10.3,11.1,10.3c0.3,0,0.6,0,0.8,0c6.1-0.5,10.7-5.8,10.3-11.9C44,290.7,41.3,245.2,78.7,195.6z"/></g></g></svg>